<mxfile host="app.diagrams.net" modified="2021-08-07T21:41:38.220Z" agent="5.0 (X11; Linux x86_64) AppleWebKit/537.36 (KHTML, like Gecko) Chrome/92.0.4515.107 Safari/537.36" etag="meDfDNYR8xjAaZz2bdJJ" version="14.9.5" type="github">
  <diagram id="j4sfNobd8HuAmSFvNhkW" name="Page-1">
    <mxGraphModel dx="801" dy="401" grid="1" gridSize="10" guides="1" tooltips="1" connect="1" arrows="1" fold="1" page="1" pageScale="1" pageWidth="850" pageHeight="1100" math="0" shadow="0">
      <root>
        <mxCell id="0" />
        <mxCell id="1" parent="0" />
        <mxCell id="qzyxHadqNjZnaP0W9u05-40" value="" style="rounded=1;whiteSpace=wrap;html=1;strokeColor=#7EA6E0;" parent="1" vertex="1">
          <mxGeometry x="20" y="90" width="800" height="370" as="geometry" />
        </mxCell>
        <mxCell id="qzyxHadqNjZnaP0W9u05-17" value="" style="edgeStyle=orthogonalEdgeStyle;rounded=0;orthogonalLoop=1;jettySize=auto;html=1;strokeColor=#CCCCCC;" parent="1" source="qzyxHadqNjZnaP0W9u05-6" target="qzyxHadqNjZnaP0W9u05-16" edge="1">
          <mxGeometry relative="1" as="geometry" />
        </mxCell>
        <mxCell id="qzyxHadqNjZnaP0W9u05-6" value="" style="whiteSpace=wrap;html=1;aspect=fixed;strokeColor=#7EA6E0;rounded=1;" parent="1" vertex="1">
          <mxGeometry x="155" y="120" width="100" height="100" as="geometry" />
        </mxCell>
        <mxCell id="qzyxHadqNjZnaP0W9u05-10" value="" style="edgeStyle=orthogonalEdgeStyle;rounded=0;orthogonalLoop=1;jettySize=auto;html=1;strokeColor=#CCCCCC;" parent="1" source="qzyxHadqNjZnaP0W9u05-1" target="qzyxHadqNjZnaP0W9u05-9" edge="1">
          <mxGeometry relative="1" as="geometry" />
        </mxCell>
        <mxCell id="qzyxHadqNjZnaP0W9u05-1" value="" style="verticalLabelPosition=bottom;html=1;verticalAlign=top;align=center;strokeColor=none;fillColor=#00BEF2;shape=mxgraph.azure.mobile;pointerEvents=1;" parent="1" vertex="1">
          <mxGeometry x="190" y="140" width="30" height="60" as="geometry" />
        </mxCell>
        <mxCell id="qzyxHadqNjZnaP0W9u05-4" style="edgeStyle=orthogonalEdgeStyle;rounded=0;orthogonalLoop=1;jettySize=auto;html=1;exitX=1;exitY=0.5;exitDx=0;exitDy=0;strokeColor=#ccc;" parent="1" source="qzyxHadqNjZnaP0W9u05-2" target="qzyxHadqNjZnaP0W9u05-1" edge="1">
          <mxGeometry relative="1" as="geometry" />
        </mxCell>
        <mxCell id="qzyxHadqNjZnaP0W9u05-2" value="" style="aspect=fixed;perimeter=ellipsePerimeter;html=1;align=center;shadow=0;dashed=0;spacingTop=3;image;image=img/lib/active_directory/user.svg;" parent="1" vertex="1">
          <mxGeometry x="60" y="135" width="25.9" height="70" as="geometry" />
        </mxCell>
        <mxCell id="qzyxHadqNjZnaP0W9u05-9" value="" style="aspect=fixed;pointerEvents=1;shadow=0;dashed=0;html=1;strokeColor=none;labelPosition=center;verticalLabelPosition=bottom;verticalAlign=top;align=center;fillColor=#00188D;shape=mxgraph.mscae.enterprise.document;rounded=1;" parent="1" vertex="1">
          <mxGeometry x="326.5" y="160" width="72" height="90" as="geometry" />
        </mxCell>
        <mxCell id="qzyxHadqNjZnaP0W9u05-11" value="" style="shape=image;html=1;verticalAlign=top;verticalLabelPosition=bottom;labelBackgroundColor=#ffffff;imageAspect=0;aspect=fixed;image=https://cdn0.iconfinder.com/data/icons/view-1/20/qrcode-128.png;rounded=1;strokeColor=#7EA6E0;" parent="1" vertex="1">
          <mxGeometry x="340" y="165" width="25" height="25" as="geometry" />
        </mxCell>
        <mxCell id="qzyxHadqNjZnaP0W9u05-32" value="" style="edgeStyle=orthogonalEdgeStyle;rounded=0;orthogonalLoop=1;jettySize=auto;html=1;strokeColor=#CCCCCC;" parent="1" source="qzyxHadqNjZnaP0W9u05-12" target="qzyxHadqNjZnaP0W9u05-19" edge="1">
          <mxGeometry relative="1" as="geometry" />
        </mxCell>
        <mxCell id="qzyxHadqNjZnaP0W9u05-12" value="" style="aspect=fixed;perimeter=ellipsePerimeter;html=1;align=center;shadow=0;dashed=0;spacingTop=3;image;image=img/lib/active_directory/windows_server.svg;rounded=1;strokeColor=#7EA6E0;" parent="1" vertex="1">
          <mxGeometry x="550" y="275.61" width="65.6" height="80" as="geometry" />
        </mxCell>
        <mxCell id="qzyxHadqNjZnaP0W9u05-18" value="" style="edgeStyle=orthogonalEdgeStyle;rounded=0;orthogonalLoop=1;jettySize=auto;html=1;strokeColor=#CCCCCC;" parent="1" source="qzyxHadqNjZnaP0W9u05-16" target="qzyxHadqNjZnaP0W9u05-12" edge="1">
          <mxGeometry relative="1" as="geometry" />
        </mxCell>
        <mxCell id="qzyxHadqNjZnaP0W9u05-16" value="" style="html=1;dashed=0;whitespace=wrap;fillColor=#2875E2;strokeColor=#ffffff;points=[[0.005,0.63,0],[0.1,0.2,0],[0.9,0.2,0],[0.5,0,0],[0.995,0.63,0],[0.72,0.99,0],[0.5,1,0],[0.28,0.99,0]];shape=mxgraph.kubernetes.icon;prIcon=api;rounded=1;" parent="1" vertex="1">
          <mxGeometry x="157.5" y="280" width="95" height="71.22" as="geometry" />
        </mxCell>
        <mxCell id="qzyxHadqNjZnaP0W9u05-30" style="edgeStyle=orthogonalEdgeStyle;rounded=0;orthogonalLoop=1;jettySize=auto;html=1;entryX=1.118;entryY=0.467;entryDx=0;entryDy=0;entryPerimeter=0;strokeColor=#CCCCCC;" parent="1" source="qzyxHadqNjZnaP0W9u05-19" target="qzyxHadqNjZnaP0W9u05-9" edge="1">
          <mxGeometry relative="1" as="geometry">
            <Array as="points">
              <mxPoint x="407" y="185" />
            </Array>
          </mxGeometry>
        </mxCell>
        <mxCell id="qzyxHadqNjZnaP0W9u05-19" value="" style="verticalLabelPosition=bottom;aspect=fixed;html=1;verticalAlign=top;strokeColor=none;align=center;outlineConnect=0;shape=mxgraph.citrix.printer;rounded=1;" parent="1" vertex="1">
          <mxGeometry x="557.8" y="150" width="70" height="70" as="geometry" />
        </mxCell>
        <mxCell id="qzyxHadqNjZnaP0W9u05-31" style="edgeStyle=orthogonalEdgeStyle;rounded=0;orthogonalLoop=1;jettySize=auto;html=1;entryX=1;entryY=0.5;entryDx=0;entryDy=0;strokeColor=#CCCCCC;" parent="1" source="qzyxHadqNjZnaP0W9u05-21" target="qzyxHadqNjZnaP0W9u05-12" edge="1">
          <mxGeometry relative="1" as="geometry" />
        </mxCell>
        <mxCell id="qzyxHadqNjZnaP0W9u05-21" value="" style="points=[];aspect=fixed;html=1;align=center;shadow=0;dashed=0;image;image=img/lib/allied_telesis/computer_and_terminals/Personal_Computer.svg;rounded=1;strokeColor=#7EA6E0;" parent="1" vertex="1">
          <mxGeometry x="700" y="177.89" width="65.6" height="88.91" as="geometry" />
        </mxCell>
        <mxCell id="qzyxHadqNjZnaP0W9u05-23" value="" style="shape=image;html=1;verticalAlign=top;verticalLabelPosition=bottom;labelBackgroundColor=#ffffff;imageAspect=0;aspect=fixed;image=https://cdn4.iconfinder.com/data/icons/logos-and-brands/512/381_Word_logo-128.png;rounded=1;strokeColor=#7EA6E0;" parent="1" vertex="1">
          <mxGeometry x="722.8" y="200" width="30" height="30" as="geometry" />
        </mxCell>
        <mxCell id="qzyxHadqNjZnaP0W9u05-33" value="Prise de photo&lt;br&gt;" style="text;html=1;resizable=0;autosize=1;align=center;verticalAlign=middle;points=[];fillColor=none;strokeColor=none;rounded=0;" parent="1" vertex="1">
          <mxGeometry x="270" y="130" width="90" height="20" as="geometry" />
        </mxCell>
        <mxCell id="qzyxHadqNjZnaP0W9u05-34" value="Lecture du QR en background processing" style="text;html=1;resizable=0;autosize=1;align=center;verticalAlign=middle;points=[];fillColor=none;strokeColor=none;rounded=0;rotation=90;" parent="1" vertex="1">
          <mxGeometry x="15" y="310" width="240" height="20" as="geometry" />
        </mxCell>
        <mxCell id="qzyxHadqNjZnaP0W9u05-35" value="Extraction et envoie des donnÃ©es de l&#39;appareil vers le serveur&lt;br&gt;" style="text;html=1;resizable=0;autosize=1;align=center;verticalAlign=middle;points=[];fillColor=none;strokeColor=none;rounded=0;" parent="1" vertex="1">
          <mxGeometry x="230" y="335.61" width="340" height="20" as="geometry" />
        </mxCell>
        <mxCell id="qzyxHadqNjZnaP0W9u05-36" value="Envoie document vers le S.I" style="text;html=1;resizable=0;autosize=1;align=center;verticalAlign=middle;points=[];fillColor=none;strokeColor=none;rounded=0;" parent="1" vertex="1">
          <mxGeometry x="652.8000000000001" y="290" width="160" height="20" as="geometry" />
        </mxCell>
        <mxCell id="qzyxHadqNjZnaP0W9u05-38" value="Impression" style="text;html=1;resizable=0;autosize=1;align=center;verticalAlign=middle;points=[];fillColor=none;strokeColor=none;rounded=0;" parent="1" vertex="1">
          <mxGeometry x="487.8" y="230" width="70" height="20" as="geometry" />
        </mxCell>
        <mxCell id="qzyxHadqNjZnaP0W9u05-41" value="ARCHITECTURE TRACKING&amp;nbsp; PARTAGE DE DOCUMENTS SENSIBLES" style="text;html=1;resizable=0;autosize=1;align=center;verticalAlign=middle;points=[];fillColor=none;strokeColor=none;rounded=0;fontSize=16;fontStyle=1;fontColor=#000099;" parent="1" vertex="1">
          <mxGeometry x="101.5" y="50" width="540" height="20" as="geometry" />
        </mxCell>
      </root>
    </mxGraphModel>
  </diagram>
</mxfile>
